<svg width="20" height="20" viewBox="0 0 20 20" fill="none" xmlns="http://www.w3.org/2000/svg">
<path d="M18.75 5.61268H14.795C15.0788 5.41893 15.3225 5.22643 15.4925 5.05393C16.5 4.04018 16.5 2.39018 15.4925 1.37643C14.5138 0.391426 12.8063 0.390176 11.8263 1.37643C11.285 1.92018 9.84625 4.13393 10.045 5.61268H9.955C10.1525 4.13393 8.715 1.92018 8.17375 1.37643C7.19375 0.390176 5.48625 0.391426 4.5075 1.37643C3.5 2.39018 3.5 4.04018 4.50625 5.05393C4.6775 5.22643 4.92125 5.41893 5.205 5.61268H1.25C0.56125 5.61268 0 6.17393 0 6.86268V9.98768C0 10.3327 0.28 10.6127 0.625 10.6127H1.25V18.1127C1.25 18.8014 1.81125 19.3627 2.5 19.3627H17.5C18.1887 19.3627 18.75 18.8014 18.75 18.1127V10.6127H19.375C19.72 10.6127 20 10.3327 20 9.98768V6.86268C20 6.17393 19.4387 5.61268 18.75 5.61268ZM5.39375 2.25768C5.6475 2.00268 5.98375 1.86268 6.34125 1.86268C6.6975 1.86268 7.03375 2.00268 7.2875 2.25768C8.13 3.10518 8.9675 5.27018 8.67625 5.57143C8.67625 5.57143 8.62375 5.61268 8.445 5.61268C7.58125 5.61268 5.9325 4.71518 5.39375 4.17268C4.87 3.64518 4.87 2.78518 5.39375 2.25768ZM9.375 18.1127H2.5V10.6127H9.375V18.1127ZM9.375 9.36268H1.25V6.86268H8.445H9.375V9.36268ZM12.7125 2.25768C13.22 1.74893 14.1 1.75018 14.6063 2.25768C15.13 2.78518 15.13 3.64518 14.6063 4.17268C14.0675 4.71518 12.4188 5.61268 11.555 5.61268C11.3763 5.61268 11.3237 5.57268 11.3225 5.57143C11.0325 5.27018 11.87 3.10518 12.7125 2.25768ZM17.5 18.1127H10.625V10.6127H17.5V18.1127ZM18.75 9.36268H10.625V6.86268H11.555H18.75V9.36268Z" fill="white"/>
</svg>
