<svg width="38" height="38" viewBox="0 0 38 38" fill="none" xmlns="http://www.w3.org/2000/svg">
<g clip-path="url(#clip0)" filter="url(#filter0_d)">
<path d="M19.005 8.29752C14.7512 8.29752 11.3075 11.745 11.3075 15.995C11.3075 20.2488 14.755 23.6925 19.005 23.6925C23.2587 23.6925 26.7025 20.245 26.7025 15.995C26.7025 11.7413 23.255 8.29752 19.005 8.29752ZM19.005 20.9913C16.2437 20.9913 14.0087 18.755 14.0087 15.995C14.0087 13.235 16.245 10.9988 19.005 10.9988C21.765 10.9988 24.0012 13.235 24.0012 15.995C24.0025 18.755 21.7662 20.9913 19.005 20.9913Z" fill="white"/>
<path d="M25.1844 1.09657C22.4244 0.967818 15.5882 0.974068 12.8257 1.09657C10.3982 1.21032 8.25693 1.79657 6.53068 3.52282C3.64568 6.40782 4.01443 10.2953 4.01443 15.9966C4.01443 21.8316 3.68943 25.6291 6.53068 28.4703C9.42693 31.3653 13.3707 30.9866 19.0044 30.9866C24.7844 30.9866 26.7794 30.9903 28.8232 30.1991C31.6019 29.1203 33.6994 26.6366 33.9044 22.1753C34.0344 19.4141 34.0269 12.5791 33.9044 9.81657C33.6569 4.55032 30.8307 1.35657 25.1844 1.09657ZM29.5532 26.5616C27.6619 28.4528 25.0382 28.2841 18.9682 28.2841C12.7182 28.2841 10.2119 28.3766 8.38318 26.5428C6.27693 24.4466 6.65818 21.0803 6.65818 15.9766C6.65818 9.07032 5.94943 4.09657 12.8807 3.74157C14.4732 3.68532 14.9419 3.66657 18.9507 3.66657L19.0069 3.70407C25.6682 3.70407 30.8944 3.00657 31.2082 9.93657C31.2794 11.5178 31.2957 11.9928 31.2957 15.9953C31.2944 22.1728 31.4119 24.6941 29.5532 26.5616Z" fill="white"/>
<path d="M27.0075 9.79249C28.0009 9.79249 28.8062 8.98716 28.8062 7.99374C28.8062 7.00032 28.0009 6.19499 27.0075 6.19499C26.0141 6.19499 25.2087 7.00032 25.2087 7.99374C25.2087 8.98716 26.0141 9.79249 27.0075 9.79249Z" fill="white"/>
</g>
<defs>
<filter id="filter0_d" x="0" y="0" width="38" height="38" filterUnits="userSpaceOnUse" color-interpolation-filters="sRGB">
<feFlood flood-opacity="0" result="BackgroundImageFix"/>
<feColorMatrix in="SourceAlpha" type="matrix" values="0 0 0 0 0 0 0 0 0 0 0 0 0 0 0 0 0 0 127 0"/>
<feOffset dy="3"/>
<feGaussianBlur stdDeviation="2"/>
<feColorMatrix type="matrix" values="0 0 0 0 1 0 0 0 0 1 0 0 0 0 1 0 0 0 0.32 0"/>
<feBlend mode="normal" in2="BackgroundImageFix" result="effect1_dropShadow"/>
<feBlend mode="normal" in="SourceGraphic" in2="effect1_dropShadow" result="shape"/>
</filter>
<clipPath id="clip0">
<rect width="30" height="30" fill="white" transform="translate(4 1)"/>
</clipPath>
</defs>
</svg>
