<svg width="74" height="74" viewBox="0 0 74 74" fill="none" xmlns="http://www.w3.org/2000/svg">
<g clip-path="url(#clip0)" filter="url(#filter0_d)">
<path d="M57.4546 8H16.5455C14.0397 8 12 10.0385 12 12.5455V53.4546C12 55.9615 14.0397 58.0001 16.5455 58.0001H57.4546C59.9604 58.0001 62.0001 55.9616 62.0001 53.4546V12.5455C62 10.0385 59.9604 8 57.4546 8ZM59.7273 53.4546C59.7273 54.7075 58.7085 55.7273 57.4546 55.7273H16.5455C15.2915 55.7273 14.2728 54.7075 14.2728 53.4546V12.5455C14.2728 11.2927 15.2916 10.2728 16.5455 10.2728H57.4546C58.7086 10.2728 59.7273 11.2927 59.7273 12.5455V53.4546Z" fill="white"/>
<path d="M37 17.4003C36.3722 17.4003 35.8637 17.9088 35.8638 18.5365V31.8638L22.5365 31.8638C21.9087 31.8638 21.4002 32.3723 21.4003 33C21.4003 33.6278 21.9088 34.1363 22.5365 34.1362L35.8638 34.1362L35.8638 47.4635C35.8638 48.0913 36.3723 48.5998 37 48.5997C37.3138 48.5997 37.598 48.4725 37.8036 48.267C38.0091 48.0614 38.1362 47.7773 38.1363 47.4634L38.1363 34.1361H51.4636C51.7774 34.1361 52.0615 34.009 52.2671 33.8034C52.4727 33.5978 52.5998 33.3138 52.5998 32.9998C52.5998 32.372 52.0914 31.8636 51.4636 31.8636L38.1364 31.8636L38.1364 18.5364C38.1363 17.9088 37.6278 17.4003 37 17.4003Z" fill="white"/>
</g>
<defs>
<filter id="filter0_d" x="0" y="0" width="74" height="74" filterUnits="userSpaceOnUse" color-interpolation-filters="sRGB">
<feFlood flood-opacity="0" result="BackgroundImageFix"/>
<feColorMatrix in="SourceAlpha" type="matrix" values="0 0 0 0 0 0 0 0 0 0 0 0 0 0 0 0 0 0 127 0"/>
<feOffset dy="4"/>
<feGaussianBlur stdDeviation="6"/>
<feColorMatrix type="matrix" values="0 0 0 0 1 0 0 0 0 1 0 0 0 0 1 0 0 0 0.45 0"/>
<feBlend mode="normal" in2="BackgroundImageFix" result="effect1_dropShadow"/>
<feBlend mode="normal" in="SourceGraphic" in2="effect1_dropShadow" result="shape"/>
</filter>
<clipPath id="clip0">
<rect width="50" height="50" fill="white" transform="translate(12 8)"/>
</clipPath>
</defs>
</svg>
