<svg width="48" height="40" viewBox="0 0 48 40" fill="none" xmlns="http://www.w3.org/2000/svg">
<g clip-path="url(#clip0)" filter="url(#filter0_d)">
<path d="M24.2417 32.5C30.0283 32.5 27.965 28.8367 28.4117 27.7833C28.405 26.9967 28.3983 26.24 28.425 25.78C28.7917 25.8833 29.6567 26.3217 31.4433 28.0583C34.2017 30.8417 34.9067 32.5 37.135 32.5H41.2367C42.5367 32.5 43.2133 31.9617 43.5517 31.51C43.8783 31.0733 44.1983 30.3067 43.8483 29.1133C42.9333 26.24 37.5967 21.2783 37.265 20.755C37.315 20.6583 37.395 20.53 37.4367 20.4633H37.4333C38.4867 19.0717 42.5067 13.0483 43.0983 10.6383C43.1 10.635 43.1017 10.63 43.1017 10.625C43.4217 9.525 43.1283 8.81167 42.825 8.40833C42.3683 7.805 41.6417 7.5 40.66 7.5H36.5583C35.185 7.5 34.1433 8.19167 33.6167 9.45333C32.735 11.695 30.2583 16.305 28.4017 17.9367C28.345 15.625 28.3833 13.86 28.4133 12.5483C28.4733 9.99 28.6667 7.5 26.0117 7.5H19.565C17.9017 7.5 16.31 9.31667 18.0333 11.4733C19.54 13.3633 18.575 14.4167 18.9 19.66C17.6333 18.3017 15.38 14.6333 13.7867 9.945C13.34 8.67667 12.6633 7.50167 10.7583 7.50167H6.65667C4.99333 7.50167 4 8.40833 4 9.92667C4 13.3367 11.5483 32.5 24.2417 32.5ZM10.7583 10.0017C11.12 10.0017 11.1567 10.0017 11.425 10.7633C13.0567 15.5683 16.7167 22.6783 19.39 22.6783C21.3983 22.6783 21.3983 20.62 21.3983 19.845L21.3967 13.675C21.2867 11.6333 20.5433 10.6167 20.055 10L25.9017 10.0067C25.905 10.035 25.8683 16.8317 25.9183 18.4783C25.9183 20.8167 27.775 22.1567 30.6733 19.2233C33.7317 15.7717 35.8467 10.6117 35.9317 10.4017C36.0567 10.1017 36.165 10 36.5583 10H40.66H40.6767C40.675 10.005 40.675 10.01 40.6733 10.015C40.2983 11.765 36.5967 17.3417 35.3583 19.0733C35.3383 19.1 35.32 19.1283 35.3017 19.1567C34.7567 20.0467 34.3133 21.03 35.3767 22.4133H35.3783C35.475 22.53 35.7267 22.8033 36.0933 23.1833C37.2333 24.36 41.1433 28.3833 41.49 29.9833C41.26 30.02 41.01 29.9933 37.135 30.0017C36.31 30.0017 35.665 28.7683 33.2033 26.285C30.99 24.1317 29.5533 23.2517 28.245 23.2517C25.705 23.2517 25.89 25.3133 25.9133 27.8067C25.9217 30.51 25.905 29.655 25.9233 29.825C25.775 29.8833 25.35 30 24.2417 30C13.6667 30 6.78 13.215 6.515 10.0067C6.60667 9.99833 7.86833 10.0033 10.7583 10.0017Z" fill="white"/>
</g>
<defs>
<filter id="filter0_d" x="0" y="-1" width="48" height="48" filterUnits="userSpaceOnUse" color-interpolation-filters="sRGB">
<feFlood flood-opacity="0" result="BackgroundImageFix"/>
<feColorMatrix in="SourceAlpha" type="matrix" values="0 0 0 0 0 0 0 0 0 0 0 0 0 0 0 0 0 0 127 0"/>
<feOffset dy="3"/>
<feGaussianBlur stdDeviation="2"/>
<feColorMatrix type="matrix" values="0 0 0 0 1 0 0 0 0 1 0 0 0 0 1 0 0 0 0.32 0"/>
<feBlend mode="normal" in2="BackgroundImageFix" result="effect1_dropShadow"/>
<feBlend mode="normal" in="SourceGraphic" in2="effect1_dropShadow" result="shape"/>
</filter>
<clipPath id="clip0">
<rect width="40" height="40" fill="white" transform="translate(4)"/>
</clipPath>
</defs>
</svg>
